<mxfile host="app.diagrams.net" modified="2023-06-13T15:31:15.612Z" agent="Mozilla/5.0 (Macintosh; Intel Mac OS X 10_15_7) AppleWebKit/537.36 (KHTML, like Gecko) Chrome/113.0.0.0 Safari/537.36" version="21.3.8" etag="NEGESm6w9SkSGytsAUvj" type="github">
  <diagram name="第 1 页" id="ZpcZpx1F9Ch346L9i--6">
    <mxGraphModel>
      <root>
        <mxCell id="0" />
        <mxCell id="1" parent="0" />
      </root>
    </mxGraphModel>
  </diagram>
</mxfile>
